REM GENRE Pop/Rock
REM DATE 2015
REM DISCID 960BAC0B
REM COMMENT "ExactAudioCopy v1.5"
PERFORMER "Haujobb"
TITLE "Blendwerk"
REM COMPOSER ""
FILE "file-01.wav" WAVE
  TRACK 01 AUDIO
    TITLE "Completion"
    PERFORMER "Haujobb"
    REM COMPOSER "Daniel Myer"
    ISRC DEOT31500142
    INDEX 01 00:00:00
FILE "file-02.wav" WAVE
  TRACK 02 AUDIO
    TITLE "Dark Heart 5"
    PERFORMER "Zinovia/Haujobb"
    REM COMPOSER "Daniel Myer"
    ISRC DEOT31500143
    INDEX 01 00:00:00
FILE "file-03.wav" WAVE
  TRACK 03 AUDIO
    TITLE "Destroy"
    PERFORMER "Haujobb"
    REM COMPOSER "Daniel Myer"
    ISRC DEOT31500144
    INDEX 01 00:00:00
FILE "file-04.wav" WAVE
  TRACK 04 AUDIO
    TITLE "Failures"
    PERFORMER "Haujobb"
    REM COMPOSER "Daniel Myer"
    ISRC DEOT31500145
    INDEX 01 00:00:00
FILE "file-05.wav" WAVE
  TRACK 05 AUDIO
    TITLE "Information Space"
    PERFORMER "Haujobb"
    REM COMPOSER "Daniel Myer"
    ISRC DEOT31500146
    INDEX 01 00:00:00
FILE "file-06.wav" WAVE
  TRACK 06 AUDIO
    TITLE "Input Error"
    PERFORMER "Haujobb"
    REM COMPOSER "Daniel Myer"
    ISRC DEOT31500147
    INDEX 01 00:00:00
FILE "file-07.wav" WAVE
  TRACK 07 AUDIO
    TITLE "Leaving"
    PERFORMER "Haujobb"
    REM COMPOSER "Daniel Myer"
    ISRC DEOT31500148
    INDEX 01 00:00:00
FILE "file-08.wav" WAVE
  TRACK 08 AUDIO
    TITLE "Little Miss Danger"
    PERFORMER "Haujobb"
    REM COMPOSER "Daniel Myer"
    ISRC DEOT31500149
    INDEX 01 00:00:00
FILE "file-09.wav" WAVE
  TRACK 09 AUDIO
    TITLE "Meltdown"
    PERFORMER "Haujobb"
    REM COMPOSER "Daniel Myer"
    ISRC DEOT31500150
    INDEX 01 00:00:00
FILE "file-10.wav" WAVE
  TRACK 10 AUDIO
    TITLE "Perfection"
    PERFORMER "Haujobb"
    REM COMPOSER "Daniel Myer"
    ISRC DEOT31500151
    INDEX 01 00:00:00
FILE "file-11.wav" WAVE
  TRACK 11 AUDIO
    TITLE "Produkt"
    PERFORMER "Haujobb"
    REM COMPOSER "Daniel Myer"
    ISRC DEOT31500152
    INDEX 01 00:00:00
